# xmcd
#
# Track frame offsets:
#	150
#	12829
#	25933
#	52936
#	66905
#	81452
#	95589
#	107530
#	121875
#	135215
#	147652
#	162666
#	177311
#	189432
#	201890
#	214215
#	228903
#	243385
#	258997
#	271453
#	283116
#	295956
#	308957
#	321874
#	335301
#
# Disc length: 4657 seconds
#
# Revision: 1
# Processed by: cddbd v1.5.2PL0 Copyright (c) Steve Scherf et al.
# Submitted via: audiograbber 1.83.01
#
DISCID=78122f19
DTITLE=Various Artist - A Rhythm and Blues Chronology 3 [CD4)
DYEAR=2015
DGENRE=R&B
TTITLE0=T-Bone Walker - Don't Leave Me Baby
TTITLE1=Big Maceo - Chicago Breakdown
TTITLE2=Dusty Fletcher - Open The Door, Richard
TTITLE3=Joe Liggins and His Honeydrippers - Tanya
TTITLE4=Big Joe Turner - My Gal's A Jockey
TTITLE5=Court Basie - The King
TTITLE6=The Golden Gate Quartet - Joshua Fit Battle Of Jericho
TTITLE7=Julia Lee and Her Boyfriends - Lotus Blossom
TTITLE8=Red Callender Trio - Red Light
TTITLE9=Champion Jack Dupree - Gonig Down Slow
TTITLE10=Lionel Hampton - Hey! Ba-Ba-Re-Bop
TTITLE11=Slim Gailard - Slim's Jam
TTITLE12=Ivory Joe Hunter - Seventh Street Boogie
TTITLE13=Duke Ellington Orchestra - Happy Go Lucky Local
TTITLE14=Louis Jordan - Let The Good Times Roll
TTITLE15=Jeanne Demetz w. Johnny Alston - Calypso Daddy
TTITLE16=Jo Jo Adams - When I'm In My Tea
TTITLE17=Montana Taylor - Indiana Avenue Stomp
TTITLE18=Lucky Millinder and His Orchestra - Fare Thee Well Deacon Jones
TTITLE19=Wynonie Harris - Playful Baby
TTITLE20=Billy Eckstine - Cool Breeze
TTITLE21=Savannah Churchill - I Want To Be Loved
TTITLE22=Pete Johnson All Stars - Atomic Boogie
TTITLE23=Amos Milburn - Down The Road Apiece
TTITLE24=Floyd Smith - Floyd's Guitar Blues
EXTD=
EXTT0=
EXTT1=
EXTT2=
EXTT3=
EXTT4=
EXTT5=
EXTT6=
EXTT7=
EXTT8=
EXTT9=
EXTT10=
EXTT11=
EXTT12=
EXTT13=
EXTT14=
EXTT15=
EXTT16=
EXTT17=
EXTT18=
EXTT19=
EXTT20=
EXTT21=
EXTT22=
EXTT23=
EXTT24=
PLAYORDER=
